<svg id="Layer_1" data-name="Layer 1" xmlns="http://www.w3.org/2000/svg" viewBox="0 0 1500 1000"><defs><style>.cls-1{fill:#ce1126;}.cls-2{fill:#339e35;}</style></defs><path d="M0,0H1500V1000H0Z"/><circle class="cls-1" cx="750" cy="380" r="215"/><g id="a"><g id="b"><g id="c"><g id="d"><path id="e" class="cls-1" d="M750,40c-7.22,0-10,10.83-10,21.67,0,26.11,3.2,39.76,10,78.33,6.8-38.57,10-52.22,10-78.33C760,50.83,757.22,40,750,40Z"/><path id="e-2" data-name="e" class="cls-1" d="M779.63,41.29c-7.19-.63-10.9,9.92-11.85,20.72-2.27,26-.28,39.89,3.14,78.9,10.13-37.83,14.51-51.15,16.79-77.16C788.65,53,786.83,41.92,779.63,41.29Z"/></g><g id="d-2" data-name="d"><path id="e-3" data-name="e" class="cls-1" d="M809,45.17c-7.11-1.26-11.73,8.93-13.61,19.6-4.53,25.71-3.75,39.71-3.75,78.88,13.39-36.81,18.91-49.7,23.45-75.41C817,57.57,816.15,46.42,809,45.17Z"/><path id="e-4" data-name="e" class="cls-1" d="M838,51.59c-7-1.87-12.46,7.87-15.27,18.34-6.76,25.22-7.2,39.23-10.61,78.25,16.55-35.5,23.17-47.86,29.93-73.08C844.85,64.64,845,53.45,838,51.59Z"/></g></g><g id="c-2" data-name="c"><g id="d-3" data-name="d"><path id="e-5" data-name="e" class="cls-1" d="M866.29,60.5c-6.79-2.47-13.11,6.76-16.81,16.94-8.93,24.54-10.59,38.46-17.4,77,19.59-33.92,27.26-45.65,36.19-70.19C872,74.1,873.07,63,866.29,60.5Z"/><path id="e-6" data-name="e" class="cls-1" d="M893.69,71.86c-6.55-3.06-13.64,5.59-18.22,15.41-11,23.66-13.9,37.38-24,75.22,22.46-32.09,31.13-43.11,42.17-66.77C898.17,85.9,900.24,74.91,893.69,71.86Z"/></g><g id="d-4" data-name="d"><path id="e-7" data-name="e" class="cls-1" d="M920,85.55c-6.25-3.61-14.08,4.38-19.49,13.77-13.06,22.61-17.11,36-30.51,72.83,25.18-30,34.77-40.22,47.83-62.83C923.24,99.93,926.25,89.16,920,85.55Z"/><path id="e-8" data-name="e" class="cls-1" d="M945,101.49c-5.92-4.14-14.41,3.14-20.62,12-15,21.39-20.19,34.41-36.74,69.9,27.69-27.69,38.14-37,53.12-58.43C947,116.1,950.93,105.63,945,101.49Z"/></g></g></g><g id="b-2" data-name="b"><g id="c-3" data-name="c"><g id="d-5" data-name="d"><path id="e-9" data-name="e" class="cls-1" d="M968.55,119.54c-5.53-4.64-14.63,1.88-21.59,10.17-16.78,20-23.11,32.52-42.69,66.44,30-25.18,41.23-33.58,58-53.58C969.24,134.27,974.08,124.19,968.55,119.54Z"/><path id="e-10" data-name="e" class="cls-1" d="M990.42,139.58c-5.11-5.1-14.74.59-22.4,8.25-18.46,18.47-25.85,30.38-48.31,62.46,32.08-22.46,44-29.85,62.46-48.31C989.83,154.32,995.52,144.69,990.42,139.58Z"/></g><g id="d-6" data-name="d"><path id="e-11" data-name="e" class="cls-1" d="M1010.46,161.45c-4.65-5.53-14.73-.69-23,6.27-20,16.78-28.4,28-53.58,58,33.92-19.58,46.43-25.91,66.44-42.69C1008.58,176.08,1015.1,167,1010.46,161.45Z"/><path id="e-12" data-name="e" class="cls-1" d="M1028.51,185c-4.14-5.91-14.61-2-23.48,4.24-21.39,15-30.74,25.43-58.43,53.12,35.49-16.55,48.51-21.76,69.9-36.74C1025.37,199.39,1032.65,190.9,1028.51,185Z"/></g></g><g id="c-4" data-name="c"><g id="d-7" data-name="d"><path id="e-13" data-name="e" class="cls-1" d="M1044.45,210c-3.61-6.25-14.38-3.24-23.77,2.17-22.61,13.06-32.83,22.65-62.83,47.83,36.8-13.4,50.22-17.45,72.83-30.51C1040.07,224.08,1048.06,216.25,1044.45,210Z"/><path id="e-14" data-name="e" class="cls-1" d="M1058.14,236.31c-3.05-6.55-14-4.48-23.86.09-23.66,11-34.68,19.71-66.77,42.17,37.84-10.14,51.56-13,75.22-24C1052.55,250,1061.2,242.86,1058.14,236.31Z"/></g><g id="d-8" data-name="d"><path id="e-15" data-name="e" class="cls-1" d="M1069.5,263.71c-2.47-6.78-13.6-5.69-23.78-2-24.54,8.93-36.27,16.6-70.19,36.19,38.57-6.81,52.49-8.47,77-17.4C1062.74,276.82,1072,270.5,1069.5,263.71Z"/><path id="e-16" data-name="e" class="cls-1" d="M1078.41,292c-1.86-7-13.05-6.85-23.51-4.05-25.22,6.76-37.58,13.38-73.08,29.93,39-3.41,53-3.85,78.25-10.61C1070.54,304.46,1080.28,299,1078.41,292Z"/></g></g></g></g><g id="a-2" data-name="a"><g id="b-3" data-name="b"><g id="c-5" data-name="c"><g id="d-9" data-name="d"><path id="e-17" data-name="e" class="cls-1" d="M415.17,321c-1.26,7.11,8.93,11.73,19.6,13.61,25.71,4.53,39.71,3.75,78.88,3.75-36.81-13.39-49.7-18.91-75.41-23.45C427.57,313,416.42,313.85,415.17,321Z"/><path id="e-18" data-name="e" class="cls-1" d="M421.59,292c-1.87,7,7.87,12.46,18.34,15.27,25.22,6.76,39.23,7.2,78.25,10.61-35.5-16.55-47.86-23.17-73.08-29.93C434.64,285.15,423.45,285,421.59,292Z"/></g><g id="d-10" data-name="d"><path id="e-19" data-name="e" class="cls-1" d="M430.5,263.71c-2.47,6.79,6.76,13.11,16.94,16.81,24.54,8.93,38.46,10.59,77,17.4-33.92-19.59-45.65-27.26-70.19-36.19C444.1,258,433,256.93,430.5,263.71Z"/><path id="e-20" data-name="e" class="cls-1" d="M441.86,236.31c-3.06,6.55,5.59,13.64,15.41,18.22,23.66,11,37.38,13.9,75.22,24-32.09-22.46-43.11-31.13-66.77-42.17C455.9,231.83,444.91,229.76,441.86,236.31Z"/></g></g><g id="c-6" data-name="c"><g id="d-11" data-name="d"><path id="e-21" data-name="e" class="cls-1" d="M455.55,210c-3.61,6.25,4.38,14.08,13.77,19.49,22.61,13.06,36,17.11,72.83,30.51-30-25.18-40.22-34.77-62.83-47.83C469.93,206.76,459.16,203.75,455.55,210Z"/><path id="e-22" data-name="e" class="cls-1" d="M471.49,185c-4.14,5.92,3.14,14.41,12,20.62,21.39,15,34.41,20.19,69.9,36.74-27.69-27.69-37-38.14-58.43-53.12C486.1,183,475.63,179.07,471.49,185Z"/></g><g id="d-12" data-name="d"><path id="e-23" data-name="e" class="cls-1" d="M489.54,161.45c-4.64,5.53,1.88,14.63,10.17,21.59,20,16.78,32.52,23.11,66.44,42.69-25.18-30-33.58-41.23-53.58-58C504.27,160.76,494.19,155.92,489.54,161.45Z"/><path id="e-24" data-name="e" class="cls-1" d="M509.58,139.58c-5.1,5.11.59,14.74,8.25,22.4,18.47,18.46,30.38,25.85,62.46,48.31-22.46-32.08-29.85-44-48.31-62.46C524.32,140.17,514.69,134.48,509.58,139.58Z"/></g></g></g><g id="b-4" data-name="b"><g id="c-7" data-name="c"><g id="d-13" data-name="d"><path id="e-25" data-name="e" class="cls-1" d="M531.45,119.54c-5.53,4.65-.69,14.73,6.27,23,16.78,20,28,28.4,58,53.58-19.58-33.92-25.91-46.43-42.69-66.44C546.08,121.42,537,114.9,531.45,119.54Z"/><path id="e-26" data-name="e" class="cls-1" d="M555,101.49c-5.91,4.14-2,14.61,4.24,23.48,15,21.39,25.43,30.74,53.12,58.43-16.55-35.49-21.76-48.51-36.74-69.9C569.39,104.63,560.9,97.35,555,101.49Z"/></g><g id="d-14" data-name="d"><path id="e-27" data-name="e" class="cls-1" d="M580,85.55c-6.25,3.61-3.24,14.38,2.17,23.77,13.06,22.61,22.65,32.83,47.83,62.83-13.4-36.8-17.45-50.22-30.51-72.83C594.08,89.93,586.25,81.94,580,85.55Z"/><path id="e-28" data-name="e" class="cls-1" d="M606.31,71.86c-6.55,3-4.48,14,.09,23.86,11,23.66,19.71,34.68,42.17,66.77-10.14-37.84-13-51.56-24-75.22C620,77.45,612.86,68.8,606.31,71.86Z"/></g></g><g id="c-8" data-name="c"><g id="d-15" data-name="d"><path id="e-29" data-name="e" class="cls-1" d="M633.71,60.5c-6.78,2.47-5.69,13.6-2,23.78,8.93,24.54,16.6,36.27,36.19,70.19-6.81-38.57-8.47-52.49-17.4-77C646.82,67.26,640.5,58,633.71,60.5Z"/><path id="e-30" data-name="e" class="cls-1" d="M662,51.59c-7,1.86-6.85,13-4,23.51,6.76,25.22,13.38,37.58,29.93,73.08-3.41-39-3.85-53-10.61-78.25C674.46,59.46,669,49.72,662,51.59Z"/></g><g id="d-16" data-name="d"><path id="e-31" data-name="e" class="cls-1" d="M691,45.17c-7.11,1.25-8,12.4-6.09,23.07,4.54,25.71,10.06,38.6,23.45,75.41,0-39.17.78-53.17-3.75-78.88C702.69,54.1,698.07,43.91,691,45.17Z"/><path id="e-32" data-name="e" class="cls-1" d="M720.37,41.29c-7.2.63-9,11.67-8.08,22.46,2.28,26,6.66,39.33,16.79,77.16,3.42-39,5.41-52.89,3.14-78.9C731.27,51.21,727.56,40.66,720.37,41.29Z"/></g></g></g></g><path d="M0,308.33H1500V1000H0Z"/><path class="cls-1" d="M0,333.33H1500V1000H0Z"/><path class="cls-2" d="M0,666.67H1500V1000H0Z"/></svg>